<?xml version="1.0" encoding="utf-8"?>
<!-- Generator: Adobe Illustrator 23.0.3, SVG Export Plug-In . SVG Version: 6.00 Build 0)  -->
<svg version="1.1" id="Layer_1" xmlns="http://www.w3.org/2000/svg" xmlns:xlink="http://www.w3.org/1999/xlink" x="0px" y="0px"
	 viewBox="0 0 178.1 180" style="enable-background:new 0 0 178.1 180;" xml:space="preserve">
<style type="text/css">
	.st0{fill:#828487;}
</style>
<g>
	<path class="st0" d="M115.2,129.76H89.24v-11.81c0.48-0.21,0.95-0.44,1.41-0.66c4.66,1.36,9.85,1.99,15.26,1.99
		c19.53,0,33.33-10,33.33-26.19c0-4.05-0.72-7.38-1.43-9.53h14.52v-15l-22.38,5.24c-5.47-3.81-14.04-6.19-24.52-6.19
		c-3.42,0-6.58,0.33-9.47,0.93c-0.01-26.4-10.89-33.65-31.35-33.65c-4.48,0-10.45,2.13-12.58,3.2l1.7,9.38
		c1.92-0.21,4.48-0.42,6.61-0.42c11.52,0,15.14,8.95,15.14,22.39c0,13.86-5.55,24.74-17.7,24.74c-4.26,0-6.61-0.42-8.74-0.64
		L48.4,69.87v-54.8c0-5.54-1.28-6.82-6.61-6.82c-7.46,0-15.99,1.49-23.88,3.2v8.32h11.51v50.11l-0.64,33.48
		c6.18,1.71,12.8,3.41,28.79,3.41c5.37,0,10.38-0.94,14.9-2.68c2.07,4.93,8.99,9.28,8.99,9.28l0.39,1.61c0,0-8.57,12.84-8.57,21.67
		c0,7.14,5,9.52,8.57,9.52c-5.72,2.38-12.39,8.57-12.39,15.95c0,14.53,16.19,17.86,31.91,17.86c24.76,0,46.42-11.43,46.42-30
		C147.81,135.48,140.92,129.76,115.2,129.76z M105.44,78.57c8.09,0,12.14,6.43,12.14,15.24c0,9.05-3.81,15-12.38,15
		c-9.53,0-12.63-6.43-12.63-14.28C92.58,86.19,95.44,78.57,105.44,78.57z M110.2,167.14c-16.91,0-23.81-5.24-23.81-12.14
		c0-3.33,1.67-5.95,3.57-7.85h25.47c8.1,0,11.43,2.61,11.43,7.38C126.86,161.9,121.39,167.14,110.2,167.14z"/>
	<g>
		<path class="st0" d="M54.71,167.91c-0.77,0-1.56-0.15-2.32-0.47c-30.62-12.97-51.16-42.8-52.33-76.02
			c-0.4-11.37,1.4-22.5,5.36-33.07c1.15-3.08,4.58-4.64,7.66-3.49c3.08,1.15,4.64,4.58,3.49,7.66c-3.4,9.1-4.95,18.68-4.61,28.47
			c1.01,28.61,18.71,54.3,45.08,65.46c3.03,1.28,4.44,4.78,3.16,7.8C59.24,166.54,57.03,167.91,54.71,167.91z"/>
	</g>
	<g>
		<path class="st0" d="M159.09,135.49c-1.12,0-2.26-0.32-3.26-0.98c-2.75-1.8-3.52-5.5-1.71-8.25c7.9-12.03,12.07-26.03,12.07-40.48
			c0-40.73-33.14-73.88-73.87-73.88c-8.18,0-16.21,1.33-23.87,3.94c-3.11,1.06-6.5-0.6-7.56-3.71s0.6-6.5,3.71-7.56
			C73.5,1.54,82.83,0,92.31,0c47.3,0,85.78,38.48,85.78,85.78c0,16.78-4.85,33.04-14.02,47.02
			C162.93,134.54,161.03,135.49,159.09,135.49z"/>
	</g>
</g>
</svg>
