<?xml version="1.0" encoding="utf-8"?>
<!-- Generator: Adobe Illustrator 23.0.3, SVG Export Plug-In . SVG Version: 6.00 Build 0)  -->
<svg version="1.1" id="Layer_1" xmlns="http://www.w3.org/2000/svg" xmlns:xlink="http://www.w3.org/1999/xlink" x="0px" y="0px"
	 viewBox="0 0 152 152" style="enable-background:new 0 0 152 152;" xml:space="preserve">
<style type="text/css">
	.st0{fill:#2A7DE1;}
	.st1{fill:#FFFFFF;}
	.st2{fill:url(#SVGID_1_);}
	.st3{fill:url(#SVGID_2_);}
	.st4{fill:#BD4700;}
	.st5{fill:#FFA700;}
	.st6{fill:#005AD4;}
	.st7{opacity:0.5;fill:url(#SVGID_5_);}
	.st8{fill:#003575;}
	.st9{clip-path:url(#SVGID_7_);}
	.st10{opacity:0.5;fill:url(#SVGID_28_);}
	.st11{fill:#444444;}
	.st12{fill:#C3C3C3;}
	.st13{fill:none;stroke:#FFFFFF;stroke-width:2.3155;stroke-miterlimit:10;}
	.st14{fill:#828487;}
	.st15{clip-path:url(#SVGID_30_);}
	.st16{fill:#DDE0E5;}
	.st17{fill:#2B3B4E;}
	.st18{fill:#FFD186;}
	.st19{fill:#FFC75B;}
	.st20{fill:#324A5E;}
	.st21{fill:#FF7058;}
	.st22{fill:#F3CF89;}
	.st23{fill:#2F7CC0;}
	.st24{fill:none;stroke:#FFA700;stroke-miterlimit:10;}
	.st25{fill:none;stroke:#003575;stroke-miterlimit:10;}
	.st26{fill:#00A6A4;}
	.st27{fill:none;stroke:#FFFFFF;stroke-width:1.0893;}
	.st28{fill:#051922;}
	.st29{fill:#63717A;}
	.st30{clip-path:url(#SVGID_50_);fill:#63717A;}
	.st31{clip-path:url(#SVGID_52_);fill:none;stroke:#63717A;stroke-width:0.2712;}
	.st32{fill:none;stroke:#63717A;stroke-width:0.2712;}
	.st33{fill:#3E2680;}
	.st34{clip-path:url(#SVGID_54_);fill:#051922;}
	.st35{clip-path:url(#SVGID_56_);fill:none;stroke:#3E2680;stroke-width:0.2712;}
	.st36{clip-path:url(#SVGID_58_);fill:#F9A01B;}
	.st37{clip-path:url(#SVGID_60_);fill:none;stroke:#F9A01B;stroke-width:0.2712;}
	.st38{clip-path:url(#SVGID_62_);fill:#BF2F38;}
	.st39{clip-path:url(#SVGID_64_);fill:#E56020;}
	.st40{clip-path:url(#SVGID_66_);fill:none;stroke:#E56020;stroke-width:0.1944;}
	.st41{clip-path:url(#SVGID_68_);fill:#F9A01B;}
	.st42{clip-path:url(#SVGID_70_);fill:none;stroke:#F9A01B;stroke-width:0.2712;stroke-linejoin:round;}
	.st43{clip-path:url(#SVGID_72_);fill:#F9A01B;}
	.st44{clip-path:url(#SVGID_74_);fill:none;stroke:#F9A01B;stroke-width:0.2712;}
	.st45{clip-path:url(#SVGID_76_);fill:#FFFFFF;}
	.st46{clip-path:url(#SVGID_78_);fill:#051922;}
	.st47{clip-path:url(#SVGID_80_);fill:none;stroke:#E56020;stroke-width:0.2712;}
	.st48{clip-path:url(#SVGID_82_);fill:none;stroke:#BF2F38;stroke-width:0.2712;}
	.st49{clip-path:url(#SVGID_84_);fill:none;stroke:#F9A01B;stroke-width:0.2712;}
	.st50{clip-path:url(#SVGID_86_);fill:url(#SVGID_87_);}
	.st51{clip-path:url(#SVGID_89_);fill:url(#SVGID_90_);}
	.st52{fill:#80AF97;}
	.st53{fill:#231F20;}
	.st54{fill:none;stroke:#157C6C;stroke-width:0.7953;}
	.st55{fill:none;stroke:#FFFFFF;stroke-width:0.7953;}
	.st56{clip-path:url(#SVGID_92_);}
	.st57{clip-path:url(#SVGID_94_);}
	.st58{fill:none;stroke:#000000;stroke-width:0.1714;}
	.st59{fill:none;stroke:#231F20;stroke-width:0.3197;}
	.st60{clip-path:url(#SVGID_98_);fill:#BCBCBE;}
	.st61{clip-path:url(#SVGID_98_);fill:#BCBEC0;}
	.st62{clip-path:url(#SVGID_98_);fill:#BEC0C2;}
	.st63{clip-path:url(#SVGID_98_);fill:#BFC0C2;}
	.st64{clip-path:url(#SVGID_98_);fill:#BFC1C3;}
	.st65{clip-path:url(#SVGID_98_);fill:#C2C4C5;}
	.st66{clip-path:url(#SVGID_98_);fill:#C3C4C7;}
	.st67{clip-path:url(#SVGID_98_);fill:#C5C5C7;}
	.st68{clip-path:url(#SVGID_98_);fill:#C5C6C9;}
	.st69{clip-path:url(#SVGID_98_);fill:#C6C8CA;}
	.st70{clip-path:url(#SVGID_98_);fill:#C7C8CA;}
	.st71{clip-path:url(#SVGID_98_);fill:#C9CACB;}
	.st72{clip-path:url(#SVGID_98_);fill:#CACCCE;}
	.st73{clip-path:url(#SVGID_98_);fill:#CCCECE;}
	.st74{clip-path:url(#SVGID_98_);fill:#CECFD1;}
	.st75{clip-path:url(#SVGID_98_);fill:#D0D0D1;}
	.st76{clip-path:url(#SVGID_98_);fill:#D0D1D2;}
	.st77{clip-path:url(#SVGID_98_);fill:#D1D2D3;}
	.st78{clip-path:url(#SVGID_98_);fill:#D3D3D5;}
	.st79{clip-path:url(#SVGID_98_);fill:#D4D5D5;}
	.st80{clip-path:url(#SVGID_98_);fill:#D4D6D7;}
	.st81{clip-path:url(#SVGID_98_);fill:#D5D6D7;}
	.st82{clip-path:url(#SVGID_98_);fill:#D7D8D9;}
	.st83{clip-path:url(#SVGID_98_);fill:#D8DADA;}
	.st84{clip-path:url(#SVGID_98_);fill:#DBDBDC;}
	.st85{clip-path:url(#SVGID_98_);fill:#DBDCDD;}
	.st86{clip-path:url(#SVGID_98_);fill:#DCDFE0;}
	.st87{clip-path:url(#SVGID_98_);fill:#DFE0E0;}
	.st88{clip-path:url(#SVGID_98_);fill:#DFE0E1;}
	.st89{clip-path:url(#SVGID_98_);fill:#E1E2E3;}
	.st90{clip-path:url(#SVGID_98_);fill:#E3E4E5;}
	.st91{clip-path:url(#SVGID_98_);fill:#E4E5E6;}
	.st92{clip-path:url(#SVGID_98_);fill:#E7E6E6;}
	.st93{clip-path:url(#SVGID_98_);fill:#E7E7E7;}
	.st94{clip-path:url(#SVGID_98_);fill:#E8E9EA;}
	.st95{clip-path:url(#SVGID_98_);fill:#E9E9EB;}
	.st96{clip-path:url(#SVGID_98_);fill:#EBEBEA;}
	.st97{clip-path:url(#SVGID_98_);fill:#ECECEE;}
	.st98{clip-path:url(#SVGID_98_);fill:#EFEFEF;}
	.st99{clip-path:url(#SVGID_98_);fill:#F1F1F1;}
	.st100{clip-path:url(#SVGID_98_);fill:#F3F2F3;}
	.st101{clip-path:url(#SVGID_98_);fill:#F3F2F2;}
	.st102{clip-path:url(#SVGID_98_);fill:#F3F4F5;}
	.st103{clip-path:url(#SVGID_98_);fill:#F5F5F6;}
	.st104{clip-path:url(#SVGID_98_);fill:#F7F7F8;}
	.st105{clip-path:url(#SVGID_98_);fill:#F7F9FC;}
	.st106{clip-path:url(#SVGID_98_);fill:#F9F9FC;}
	.st107{clip-path:url(#SVGID_98_);fill:#FFFFFF;}
	.st108{fill:none;stroke:#BCBEC0;stroke-width:0.455;}
	.st109{fill:none;stroke:#929497;stroke-width:0.455;stroke-linecap:round;}
	.st110{fill:none;stroke:#F8A03A;stroke-width:0.455;stroke-linecap:round;}
	.st111{fill:none;stroke:#231F20;stroke-width:0.0864;}
	.st112{clip-path:url(#SVGID_100_);fill:#C3C4C7;}
	.st113{clip-path:url(#SVGID_100_);fill:#C7C8CA;}
	.st114{clip-path:url(#SVGID_100_);fill:#CCCECE;}
	.st115{clip-path:url(#SVGID_100_);fill:#CECFD1;}
	.st116{clip-path:url(#SVGID_100_);fill:#D0D0D1;}
	.st117{clip-path:url(#SVGID_100_);fill:#D0D1D2;}
	.st118{clip-path:url(#SVGID_100_);fill:#D1D2D3;}
	.st119{clip-path:url(#SVGID_100_);fill:#D3D3D5;}
	.st120{clip-path:url(#SVGID_100_);fill:#D4D5D5;}
	.st121{clip-path:url(#SVGID_100_);fill:#D4D6D7;}
	.st122{clip-path:url(#SVGID_100_);fill:#D5D6D7;}
	.st123{clip-path:url(#SVGID_100_);fill:#D7D8D9;}
	.st124{clip-path:url(#SVGID_100_);fill:#D8DADA;}
	.st125{clip-path:url(#SVGID_100_);fill:#DBDBDC;}
	.st126{clip-path:url(#SVGID_100_);fill:#DBDCDD;}
	.st127{clip-path:url(#SVGID_100_);fill:#DCDFE0;}
	.st128{clip-path:url(#SVGID_100_);fill:#DFE0E0;}
	.st129{clip-path:url(#SVGID_100_);fill:#DFE0E1;}
	.st130{clip-path:url(#SVGID_100_);fill:#E1E2E3;}
	.st131{clip-path:url(#SVGID_100_);fill:#E3E4E5;}
	.st132{clip-path:url(#SVGID_100_);fill:#E4E5E6;}
	.st133{clip-path:url(#SVGID_100_);fill:#E7E6E6;}
	.st134{clip-path:url(#SVGID_100_);fill:#E7E7E7;}
	.st135{clip-path:url(#SVGID_100_);fill:#E8E9EA;}
	.st136{clip-path:url(#SVGID_100_);fill:#E9E9EB;}
	.st137{clip-path:url(#SVGID_100_);fill:#EBEBEA;}
	.st138{clip-path:url(#SVGID_100_);fill:#ECECEE;}
	.st139{clip-path:url(#SVGID_100_);fill:#EFEFEF;}
	.st140{clip-path:url(#SVGID_100_);fill:#F1F1F1;}
	.st141{clip-path:url(#SVGID_100_);fill:#F3F2F3;}
	.st142{clip-path:url(#SVGID_100_);fill:#F3F2F2;}
	.st143{clip-path:url(#SVGID_100_);fill:#F3F4F5;}
	.st144{clip-path:url(#SVGID_100_);fill:#F5F5F6;}
	.st145{clip-path:url(#SVGID_100_);fill:#F7F7F8;}
	.st146{clip-path:url(#SVGID_100_);fill:#F7F9FC;}
	.st147{clip-path:url(#SVGID_100_);fill:#F9F9FC;}
	.st148{clip-path:url(#SVGID_100_);fill:#FFFFFF;}
	.st149{fill:none;stroke:#231F20;stroke-width:0.8856;}
	.st150{fill:none;stroke:#231F20;stroke-width:0.4164;}
	.st151{clip-path:url(#SVGID_102_);fill:url(#SVGID_103_);}
	.st152{fill:none;stroke:#231F20;stroke-width:0.3107;}
</style>
<circle class="st0" cx="76" cy="76" r="76"/>
<g>
	<g>
		<circle class="st1" cx="76" cy="76.5" r="64"/>
	</g>
	<g>
		<g>
			<path class="st0" d="M106.22,121.51H45.78c-1.41,0-2.55-1.14-2.55-2.55V34.04c0-1.41,1.14-2.55,2.55-2.55h60.43
				c1.41,0,2.55,1.14,2.55,2.55v84.92C108.77,120.37,107.63,121.51,106.22,121.51z"/>
		</g>
		<g>
			<rect x="47.19" y="43.3" class="st1" width="57.62" height="63.89"/>
		</g>
		<g>
			<path class="st8" d="M71.55,114.33c0,2.46,1.99,4.45,4.45,4.45c2.46,0,4.45-1.99,4.45-4.45c0-2.46-1.99-4.45-4.45-4.45
				C73.54,109.88,71.55,111.87,71.55,114.33z"/>
		</g>
		<g>
			<path class="st8" d="M85.07,36.43H72.6c-0.58,0-1.05,0.47-1.05,1.05c0,0.58,0.47,1.05,1.05,1.05h12.47
				c0.58,0,1.05-0.47,1.05-1.05C86.13,36.9,85.66,36.43,85.07,36.43z"/>
		</g>
		<g>
			<path class="st8" d="M68.3,36.43h-1.37c-0.58,0-1.05,0.47-1.05,1.05c0,0.58,0.47,1.05,1.05,1.05h1.37c0.58,0,1.05-0.47,1.05-1.05
				C69.35,36.9,68.88,36.43,68.3,36.43z"/>
		</g>
		<g>
			<g>
				<g>
					<path class="st5" d="M116.61,50.78H81.04c-1.22,0-2.21,0.99-2.21,2.21v20.13c0,1.22,0.99,2.21,2.21,2.21h4.23v7.22l7.22-7.22
						h24.12c1.22,0,2.21-0.99,2.21-2.21V52.99C118.81,51.77,117.82,50.78,116.61,50.78z"/>
				</g>
				<g>
					<path class="st22" d="M79.56,51.35l17.51,13.43c1.03,0.79,2.46,0.79,3.49,0l17.51-13.43c-0.39-0.35-0.9-0.56-1.47-0.56H81.04
						C80.47,50.78,79.95,50.99,79.56,51.35z"/>
				</g>
			</g>
			<g>
				<g>
					<path class="st8" d="M35.39,67.96h35.57c1.22,0,2.21,0.99,2.21,2.2v20.13c0,1.22-0.99,2.21-2.21,2.21h-4.23v7.22l-7.22-7.22
						H35.39c-1.22,0-2.21-0.99-2.21-2.21V70.16C33.19,68.94,34.18,67.96,35.39,67.96z"/>
				</g>
				<g>
					<path class="st23" d="M72.44,68.52L54.93,81.95c-1.03,0.79-2.46,0.79-3.49,0L33.92,68.52c0.39-0.35,0.9-0.56,1.47-0.56h35.57
						C71.53,67.96,72.05,68.17,72.44,68.52z"/>
				</g>
			</g>
		</g>
	</g>
</g>
</svg>
