<?xml version="1.0" encoding="utf-8"?>
<!-- Generator: Adobe Illustrator 23.0.3, SVG Export Plug-In . SVG Version: 6.00 Build 0)  -->
<svg version="1.1" id="Layer_1" xmlns="http://www.w3.org/2000/svg" xmlns:xlink="http://www.w3.org/1999/xlink" x="0px" y="0px"
	 viewBox="0 0 152 152" style="enable-background:new 0 0 152 152;" xml:space="preserve">
<style type="text/css">
	.st0{fill:#2A7DE1;}
	.st1{fill:#FFFFFF;}
	.st2{fill:url(#SVGID_1_);}
	.st3{fill:url(#SVGID_2_);}
	.st4{fill:#BD4700;}
	.st5{fill:#FFA700;}
	.st6{fill:#005AD4;}
	.st7{opacity:0.5;fill:url(#SVGID_5_);}
	.st8{fill:#003575;}
	.st9{clip-path:url(#SVGID_7_);}
	.st10{opacity:0.5;fill:url(#SVGID_28_);}
	.st11{fill:#444444;}
	.st12{fill:#C3C3C3;}
	.st13{fill:none;stroke:#FFFFFF;stroke-width:2.3155;stroke-miterlimit:10;}
	.st14{fill:#828487;}
	.st15{clip-path:url(#SVGID_30_);}
	.st16{fill:#DDE0E5;}
	.st17{fill:#2B3B4E;}
	.st18{fill:#FFD186;}
	.st19{fill:#FFC75B;}
	.st20{fill:#324A5E;}
	.st21{fill:#FF7058;}
	.st22{fill:#F3CF89;}
	.st23{fill:#2F7CC0;}
	.st24{fill:none;stroke:#FFA700;stroke-miterlimit:10;}
	.st25{fill:none;stroke:#003575;stroke-miterlimit:10;}
	.st26{fill:#00A6A4;}
	.st27{fill:none;stroke:#FFFFFF;stroke-width:1.0893;}
	.st28{fill:#051922;}
	.st29{fill:#63717A;}
	.st30{clip-path:url(#SVGID_50_);fill:#63717A;}
	.st31{clip-path:url(#SVGID_52_);fill:none;stroke:#63717A;stroke-width:0.2712;}
	.st32{fill:none;stroke:#63717A;stroke-width:0.2712;}
	.st33{fill:#3E2680;}
	.st34{clip-path:url(#SVGID_54_);fill:#051922;}
	.st35{clip-path:url(#SVGID_56_);fill:none;stroke:#3E2680;stroke-width:0.2712;}
	.st36{clip-path:url(#SVGID_58_);fill:#F9A01B;}
	.st37{clip-path:url(#SVGID_60_);fill:none;stroke:#F9A01B;stroke-width:0.2712;}
	.st38{clip-path:url(#SVGID_62_);fill:#BF2F38;}
	.st39{clip-path:url(#SVGID_64_);fill:#E56020;}
	.st40{clip-path:url(#SVGID_66_);fill:none;stroke:#E56020;stroke-width:0.1944;}
	.st41{clip-path:url(#SVGID_68_);fill:#F9A01B;}
	.st42{clip-path:url(#SVGID_70_);fill:none;stroke:#F9A01B;stroke-width:0.2712;stroke-linejoin:round;}
	.st43{clip-path:url(#SVGID_72_);fill:#F9A01B;}
	.st44{clip-path:url(#SVGID_74_);fill:none;stroke:#F9A01B;stroke-width:0.2712;}
	.st45{clip-path:url(#SVGID_76_);fill:#FFFFFF;}
	.st46{clip-path:url(#SVGID_78_);fill:#051922;}
	.st47{clip-path:url(#SVGID_80_);fill:none;stroke:#E56020;stroke-width:0.2712;}
	.st48{clip-path:url(#SVGID_82_);fill:none;stroke:#BF2F38;stroke-width:0.2712;}
	.st49{clip-path:url(#SVGID_84_);fill:none;stroke:#F9A01B;stroke-width:0.2712;}
	.st50{clip-path:url(#SVGID_86_);fill:url(#SVGID_87_);}
	.st51{clip-path:url(#SVGID_89_);fill:url(#SVGID_90_);}
	.st52{fill:#80AF97;}
	.st53{fill:#231F20;}
	.st54{fill:none;stroke:#157C6C;stroke-width:0.7953;}
	.st55{fill:none;stroke:#FFFFFF;stroke-width:0.7953;}
	.st56{clip-path:url(#SVGID_92_);}
	.st57{clip-path:url(#SVGID_94_);}
	.st58{fill:none;stroke:#000000;stroke-width:0.1714;}
	.st59{fill:none;stroke:#231F20;stroke-width:0.3197;}
	.st60{clip-path:url(#SVGID_98_);fill:#BCBCBE;}
	.st61{clip-path:url(#SVGID_98_);fill:#BCBEC0;}
	.st62{clip-path:url(#SVGID_98_);fill:#BEC0C2;}
	.st63{clip-path:url(#SVGID_98_);fill:#BFC0C2;}
	.st64{clip-path:url(#SVGID_98_);fill:#BFC1C3;}
	.st65{clip-path:url(#SVGID_98_);fill:#C2C4C5;}
	.st66{clip-path:url(#SVGID_98_);fill:#C3C4C7;}
	.st67{clip-path:url(#SVGID_98_);fill:#C5C5C7;}
	.st68{clip-path:url(#SVGID_98_);fill:#C5C6C9;}
	.st69{clip-path:url(#SVGID_98_);fill:#C6C8CA;}
	.st70{clip-path:url(#SVGID_98_);fill:#C7C8CA;}
	.st71{clip-path:url(#SVGID_98_);fill:#C9CACB;}
	.st72{clip-path:url(#SVGID_98_);fill:#CACCCE;}
	.st73{clip-path:url(#SVGID_98_);fill:#CCCECE;}
	.st74{clip-path:url(#SVGID_98_);fill:#CECFD1;}
	.st75{clip-path:url(#SVGID_98_);fill:#D0D0D1;}
	.st76{clip-path:url(#SVGID_98_);fill:#D0D1D2;}
	.st77{clip-path:url(#SVGID_98_);fill:#D1D2D3;}
	.st78{clip-path:url(#SVGID_98_);fill:#D3D3D5;}
	.st79{clip-path:url(#SVGID_98_);fill:#D4D5D5;}
	.st80{clip-path:url(#SVGID_98_);fill:#D4D6D7;}
	.st81{clip-path:url(#SVGID_98_);fill:#D5D6D7;}
	.st82{clip-path:url(#SVGID_98_);fill:#D7D8D9;}
	.st83{clip-path:url(#SVGID_98_);fill:#D8DADA;}
	.st84{clip-path:url(#SVGID_98_);fill:#DBDBDC;}
	.st85{clip-path:url(#SVGID_98_);fill:#DBDCDD;}
	.st86{clip-path:url(#SVGID_98_);fill:#DCDFE0;}
	.st87{clip-path:url(#SVGID_98_);fill:#DFE0E0;}
	.st88{clip-path:url(#SVGID_98_);fill:#DFE0E1;}
	.st89{clip-path:url(#SVGID_98_);fill:#E1E2E3;}
	.st90{clip-path:url(#SVGID_98_);fill:#E3E4E5;}
	.st91{clip-path:url(#SVGID_98_);fill:#E4E5E6;}
	.st92{clip-path:url(#SVGID_98_);fill:#E7E6E6;}
	.st93{clip-path:url(#SVGID_98_);fill:#E7E7E7;}
	.st94{clip-path:url(#SVGID_98_);fill:#E8E9EA;}
	.st95{clip-path:url(#SVGID_98_);fill:#E9E9EB;}
	.st96{clip-path:url(#SVGID_98_);fill:#EBEBEA;}
	.st97{clip-path:url(#SVGID_98_);fill:#ECECEE;}
	.st98{clip-path:url(#SVGID_98_);fill:#EFEFEF;}
	.st99{clip-path:url(#SVGID_98_);fill:#F1F1F1;}
	.st100{clip-path:url(#SVGID_98_);fill:#F3F2F3;}
	.st101{clip-path:url(#SVGID_98_);fill:#F3F2F2;}
	.st102{clip-path:url(#SVGID_98_);fill:#F3F4F5;}
	.st103{clip-path:url(#SVGID_98_);fill:#F5F5F6;}
	.st104{clip-path:url(#SVGID_98_);fill:#F7F7F8;}
	.st105{clip-path:url(#SVGID_98_);fill:#F7F9FC;}
	.st106{clip-path:url(#SVGID_98_);fill:#F9F9FC;}
	.st107{clip-path:url(#SVGID_98_);fill:#FFFFFF;}
	.st108{fill:none;stroke:#BCBEC0;stroke-width:0.455;}
	.st109{fill:none;stroke:#929497;stroke-width:0.455;stroke-linecap:round;}
	.st110{fill:none;stroke:#F8A03A;stroke-width:0.455;stroke-linecap:round;}
	.st111{fill:none;stroke:#231F20;stroke-width:0.0864;}
	.st112{clip-path:url(#SVGID_100_);fill:#C3C4C7;}
	.st113{clip-path:url(#SVGID_100_);fill:#C7C8CA;}
	.st114{clip-path:url(#SVGID_100_);fill:#CCCECE;}
	.st115{clip-path:url(#SVGID_100_);fill:#CECFD1;}
	.st116{clip-path:url(#SVGID_100_);fill:#D0D0D1;}
	.st117{clip-path:url(#SVGID_100_);fill:#D0D1D2;}
	.st118{clip-path:url(#SVGID_100_);fill:#D1D2D3;}
	.st119{clip-path:url(#SVGID_100_);fill:#D3D3D5;}
	.st120{clip-path:url(#SVGID_100_);fill:#D4D5D5;}
	.st121{clip-path:url(#SVGID_100_);fill:#D4D6D7;}
	.st122{clip-path:url(#SVGID_100_);fill:#D5D6D7;}
	.st123{clip-path:url(#SVGID_100_);fill:#D7D8D9;}
	.st124{clip-path:url(#SVGID_100_);fill:#D8DADA;}
	.st125{clip-path:url(#SVGID_100_);fill:#DBDBDC;}
	.st126{clip-path:url(#SVGID_100_);fill:#DBDCDD;}
	.st127{clip-path:url(#SVGID_100_);fill:#DCDFE0;}
	.st128{clip-path:url(#SVGID_100_);fill:#DFE0E0;}
	.st129{clip-path:url(#SVGID_100_);fill:#DFE0E1;}
	.st130{clip-path:url(#SVGID_100_);fill:#E1E2E3;}
	.st131{clip-path:url(#SVGID_100_);fill:#E3E4E5;}
	.st132{clip-path:url(#SVGID_100_);fill:#E4E5E6;}
	.st133{clip-path:url(#SVGID_100_);fill:#E7E6E6;}
	.st134{clip-path:url(#SVGID_100_);fill:#E7E7E7;}
	.st135{clip-path:url(#SVGID_100_);fill:#E8E9EA;}
	.st136{clip-path:url(#SVGID_100_);fill:#E9E9EB;}
	.st137{clip-path:url(#SVGID_100_);fill:#EBEBEA;}
	.st138{clip-path:url(#SVGID_100_);fill:#ECECEE;}
	.st139{clip-path:url(#SVGID_100_);fill:#EFEFEF;}
	.st140{clip-path:url(#SVGID_100_);fill:#F1F1F1;}
	.st141{clip-path:url(#SVGID_100_);fill:#F3F2F3;}
	.st142{clip-path:url(#SVGID_100_);fill:#F3F2F2;}
	.st143{clip-path:url(#SVGID_100_);fill:#F3F4F5;}
	.st144{clip-path:url(#SVGID_100_);fill:#F5F5F6;}
	.st145{clip-path:url(#SVGID_100_);fill:#F7F7F8;}
	.st146{clip-path:url(#SVGID_100_);fill:#F7F9FC;}
	.st147{clip-path:url(#SVGID_100_);fill:#F9F9FC;}
	.st148{clip-path:url(#SVGID_100_);fill:#FFFFFF;}
	.st149{fill:none;stroke:#231F20;stroke-width:0.8856;}
	.st150{fill:none;stroke:#231F20;stroke-width:0.4164;}
	.st151{clip-path:url(#SVGID_102_);fill:url(#SVGID_103_);}
	.st152{fill:none;stroke:#231F20;stroke-width:0.3107;}
</style>
<circle class="st0" cx="76" cy="76" r="76"/>
<g>
	<g>
		<circle class="st5" cx="75.13" cy="76.5" r="64"/>
	</g>
	<g>
		<path class="st1" d="M106.57,118.39H43.68c-1.73,0-3.14-1.4-3.14-3.14V72.71c0-1.73,1.4-3.14,3.14-3.14h62.89
			c1.73,0,3.14,1.4,3.14,3.14v42.54C109.71,116.99,108.31,118.39,106.57,118.39z"/>
	</g>
	<g>
		<path class="st20" d="M107.53,69.58H42.72c-1.2,0-2.56-0.95-3.04-2.15l-9.02-22.44c-0.78-1.95-0.15-3.59,1.45-3.59h86.04
			c1.59,0,2.23,1.63,1.45,3.59l-9.02,22.44C110.09,68.62,108.74,69.58,107.53,69.58z"/>
	</g>
	<g>
		<polygon class="st0" points="44.79,67.15 37.33,45.4 112.93,45.4 105.47,67.15 		"/>
	</g>
	<g>
		<g>
			<g>
				<path class="st16" d="M49.42,79.55h-4c-0.4,0-0.73-0.33-0.73-0.73v-4c0-0.4,0.33-0.73,0.73-0.73h4c0.4,0,0.73,0.33,0.73,0.73v4
					C50.15,79.22,49.82,79.55,49.42,79.55z"/>
			</g>
			<g>
				<path class="st16" d="M57.34,79.55h-4c-0.4,0-0.73-0.33-0.73-0.73v-4c0-0.4,0.33-0.73,0.73-0.73h4c0.4,0,0.73,0.33,0.73,0.73v4
					C58.07,79.22,57.74,79.55,57.34,79.55z"/>
			</g>
			<g>
				<path class="st16" d="M65.26,79.55h-4c-0.4,0-0.73-0.33-0.73-0.73v-4c0-0.4,0.33-0.73,0.73-0.73h4c0.4,0,0.73,0.33,0.73,0.73v4
					C65.98,79.22,65.66,79.55,65.26,79.55z"/>
			</g>
			<g>
				<path class="st16" d="M73.17,79.55h-4c-0.4,0-0.73-0.33-0.73-0.73v-4c0-0.4,0.33-0.73,0.73-0.73h4c0.4,0,0.73,0.33,0.73,0.73v4
					C73.9,79.22,73.57,79.55,73.17,79.55z"/>
			</g>
			<g>
				<path class="st16" d="M81.09,79.55h-4c-0.4,0-0.73-0.33-0.73-0.73v-4c0-0.4,0.33-0.73,0.73-0.73h4c0.4,0,0.73,0.33,0.73,0.73v4
					C81.82,79.22,81.49,79.55,81.09,79.55z"/>
			</g>
			<g>
				<path class="st16" d="M89.01,79.55h-4c-0.4,0-0.73-0.33-0.73-0.73v-4c0-0.4,0.33-0.73,0.73-0.73h4c0.4,0,0.73,0.33,0.73,0.73v4
					C89.73,79.22,89.41,79.55,89.01,79.55z"/>
			</g>
			<g>
				<path class="st16" d="M96.92,79.55h-4c-0.4,0-0.73-0.33-0.73-0.73v-4c0-0.4,0.33-0.73,0.73-0.73h4c0.4,0,0.73,0.33,0.73,0.73v4
					C97.65,79.22,97.32,79.55,96.92,79.55z"/>
			</g>
			<g>
				<path class="st16" d="M104.84,79.55h-4c-0.4,0-0.73-0.33-0.73-0.73v-4c0-0.4,0.33-0.73,0.73-0.73h4c0.4,0,0.73,0.33,0.73,0.73v4
					C105.57,79.22,105.24,79.55,104.84,79.55z"/>
			</g>
		</g>
		<g>
			<g>
				<path class="st16" d="M49.42,86.83h-4c-0.4,0-0.73-0.33-0.73-0.73v-4c0-0.4,0.33-0.73,0.73-0.73h4c0.4,0,0.73,0.33,0.73,0.73v4
					C50.15,86.5,49.82,86.83,49.42,86.83z"/>
			</g>
			<g>
				<path class="st16" d="M57.34,86.83h-4c-0.4,0-0.73-0.33-0.73-0.73v-4c0-0.4,0.33-0.73,0.73-0.73h4c0.4,0,0.73,0.33,0.73,0.73v4
					C58.07,86.5,57.74,86.83,57.34,86.83z"/>
			</g>
			<g>
				<path class="st16" d="M65.26,86.83h-4c-0.4,0-0.73-0.33-0.73-0.73v-4c0-0.4,0.33-0.73,0.73-0.73h4c0.4,0,0.73,0.33,0.73,0.73v4
					C65.98,86.5,65.66,86.83,65.26,86.83z"/>
			</g>
			<g>
				<path class="st16" d="M73.17,86.83h-4c-0.4,0-0.73-0.33-0.73-0.73v-4c0-0.4,0.33-0.73,0.73-0.73h4c0.4,0,0.73,0.33,0.73,0.73v4
					C73.9,86.5,73.57,86.83,73.17,86.83z"/>
			</g>
			<g>
				<path class="st16" d="M81.09,86.83h-4c-0.4,0-0.73-0.33-0.73-0.73v-4c0-0.4,0.33-0.73,0.73-0.73h4c0.4,0,0.73,0.33,0.73,0.73v4
					C81.82,86.5,81.49,86.83,81.09,86.83z"/>
			</g>
			<g>
				<path class="st16" d="M89.01,86.83h-4c-0.4,0-0.73-0.33-0.73-0.73v-4c0-0.4,0.33-0.73,0.73-0.73h4c0.4,0,0.73,0.33,0.73,0.73v4
					C89.73,86.5,89.41,86.83,89.01,86.83z"/>
			</g>
			<g>
				<path class="st16" d="M96.92,86.83h-4c-0.4,0-0.73-0.33-0.73-0.73v-4c0-0.4,0.33-0.73,0.73-0.73h4c0.4,0,0.73,0.33,0.73,0.73v4
					C97.65,86.5,97.32,86.83,96.92,86.83z"/>
			</g>
			<g>
				<path class="st16" d="M104.84,86.83h-4c-0.4,0-0.73-0.33-0.73-0.73v-4c0-0.4,0.33-0.73,0.73-0.73h4c0.4,0,0.73,0.33,0.73,0.73v4
					C105.57,86.5,105.24,86.83,104.84,86.83z"/>
			</g>
		</g>
		<g>
			<g>
				<path class="st16" d="M49.42,94.11h-4c-0.4,0-0.73-0.33-0.73-0.73v-4c0-0.4,0.33-0.73,0.73-0.73h4c0.4,0,0.73,0.33,0.73,0.73v4
					C50.15,93.78,49.82,94.11,49.42,94.11z"/>
			</g>
			<g>
				<path class="st16" d="M57.34,94.11h-4c-0.4,0-0.73-0.33-0.73-0.73v-4c0-0.4,0.33-0.73,0.73-0.73h4c0.4,0,0.73,0.33,0.73,0.73v4
					C58.07,93.78,57.74,94.11,57.34,94.11z"/>
			</g>
			<g>
				<path class="st16" d="M65.26,94.11h-4c-0.4,0-0.73-0.33-0.73-0.73v-4c0-0.4,0.33-0.73,0.73-0.73h4c0.4,0,0.73,0.33,0.73,0.73v4
					C65.98,93.78,65.66,94.11,65.26,94.11z"/>
			</g>
			<g>
				<path class="st16" d="M73.17,94.11h-4c-0.4,0-0.73-0.33-0.73-0.73v-4c0-0.4,0.33-0.73,0.73-0.73h4c0.4,0,0.73,0.33,0.73,0.73v4
					C73.9,93.78,73.57,94.11,73.17,94.11z"/>
			</g>
			<g>
				<path class="st16" d="M81.09,94.11h-4c-0.4,0-0.73-0.33-0.73-0.73v-4c0-0.4,0.33-0.73,0.73-0.73h4c0.4,0,0.73,0.33,0.73,0.73v4
					C81.82,93.78,81.49,94.11,81.09,94.11z"/>
			</g>
			<g>
				<path class="st16" d="M89.01,94.11h-4c-0.4,0-0.73-0.33-0.73-0.73v-4c0-0.4,0.33-0.73,0.73-0.73h4c0.4,0,0.73,0.33,0.73,0.73v4
					C89.73,93.78,89.41,94.11,89.01,94.11z"/>
			</g>
			<g>
				<path class="st16" d="M96.92,94.11h-4c-0.4,0-0.73-0.33-0.73-0.73v-4c0-0.4,0.33-0.73,0.73-0.73h4c0.4,0,0.73,0.33,0.73,0.73v4
					C97.65,93.78,97.32,94.11,96.92,94.11z"/>
			</g>
			<g>
				<path class="st16" d="M104.84,94.11h-4c-0.4,0-0.73-0.33-0.73-0.73v-4c0-0.4,0.33-0.73,0.73-0.73h4c0.4,0,0.73,0.33,0.73,0.73v4
					C105.57,93.78,105.24,94.11,104.84,94.11z"/>
			</g>
		</g>
		<g>
			<path class="st16" d="M49.42,101.39h-4c-0.4,0-0.73-0.33-0.73-0.73v-4c0-0.4,0.33-0.73,0.73-0.73h4c0.4,0,0.73,0.33,0.73,0.73v4
				C50.15,101.06,49.82,101.39,49.42,101.39z"/>
		</g>
		<g>
			<path class="st16" d="M81.09,101.39H53.34c-0.4,0-0.73-0.33-0.73-0.73v-4c0-0.4,0.33-0.73,0.73-0.73h27.75
				c0.4,0,0.73,0.33,0.73,0.73v4C81.82,101.06,81.49,101.39,81.09,101.39z"/>
		</g>
		<g>
			<path class="st16" d="M89.01,101.39h-4c-0.4,0-0.73-0.33-0.73-0.73v-4c0-0.4,0.33-0.73,0.73-0.73h4c0.4,0,0.73,0.33,0.73,0.73v4
				C89.73,101.06,89.41,101.39,89.01,101.39z"/>
		</g>
		<g>
			<path class="st16" d="M96.92,101.39h-4c-0.4,0-0.73-0.33-0.73-0.73v-4c0-0.4,0.33-0.73,0.73-0.73h4c0.4,0,0.73,0.33,0.73,0.73v4
				C97.65,101.06,97.32,101.39,96.92,101.39z"/>
		</g>
		<g>
			<path class="st16" d="M104.84,101.39h-4c-0.4,0-0.73-0.33-0.73-0.73v-4c0-0.4,0.33-0.73,0.73-0.73h4c0.4,0,0.73,0.33,0.73,0.73v4
				C105.57,101.06,105.24,101.39,104.84,101.39z"/>
		</g>
	</g>
	<g>
		<path class="st16" d="M85.14,115.7H65.12c-0.76,0-1.37-0.61-1.37-1.37v-8.47c0-0.76,0.61-1.37,1.37-1.37h20.03
			c0.76,0,1.37,0.61,1.37,1.37v8.47C86.51,115.08,85.9,115.7,85.14,115.7z"/>
	</g>
</g>
</svg>
