<?xml version="1.0" encoding="utf-8"?>
<!-- Generator: Adobe Illustrator 24.2.1, SVG Export Plug-In . SVG Version: 6.00 Build 0)  -->
<svg version="1.1" id="Layer_1" xmlns="http://www.w3.org/2000/svg" xmlns:xlink="http://www.w3.org/1999/xlink" x="0px" y="0px"
	 viewBox="0 0 640 1017.23" style="enable-background:new 0 0 640 1017.23;" xml:space="preserve">
<style type="text/css">
	.st0{fill:#FFAD00;}
	.st1{fill:#005ADA;}
	.st2{opacity:0.5;fill:url(#SVGID_3_);}
	.st3{fill:none;}
	.st4{fill:#2A7DE1;}
	.st5{font-family:'Lato-Bold';}
	.st6{font-size:20px;}
	.st7{font-family:'Lato-Regular';}
	.st8{font-size:18px;}
	.st9{font-family:'Lato-Light';}
	.st10{opacity:0.25;fill:#2A7DE1;}
	.st11{fill:#B09F8E;}
	.st12{fill:#3B7558;}
	.st13{fill:#A9C4AB;}
	.st14{fill:#4D4D4D;}
	.st15{fill:#7CB0C2;}
	.st16{fill:#2D5615;}
	.st17{fill:#FFFFFF;}
	.st18{fill:#333333;}
	.st19{fill:none;stroke:#005ADA;stroke-width:4;stroke-miterlimit:10;}
	.st20{fill:#EFEFEF;}
	.st21{fill:#003575;}
	.st22{opacity:0.5;fill:url(#SVGID_8_);}
	.st23{fill:#444444;}
	.st24{fill:#828487;}
	.st25{fill:none;stroke:url(#SVGID_9_);stroke-width:6;stroke-miterlimit:10;}
	.st26{fill:#635342;}
	.st27{fill:none;stroke:#8C704C;stroke-width:3;stroke-miterlimit:10;}
	.st28{fill:#CCCCCC;}
	.st29{fill:none;stroke:#828487;stroke-width:3;stroke-linecap:round;stroke-miterlimit:10;}
	.st30{fill:none;stroke:url(#SVGID_22_);stroke-width:9;stroke-miterlimit:10;}
</style>
<rect x="127.4" y="66.8" class="st3" width="306.51" height="100"/>
<text transform="matrix(1 0 0 1 127.4003 84.3998)"><tspan x="0" y="0" class="st4 st5 st6">2009</tspan><tspan x="0" y="18" class="st7 st8">BrandGlue is born!</tspan><tspan x="0" y="44" class="st9 st8">Started in a college dorm room,  </tspan><tspan x="0" y="62" class="st9 st8">focused solely on Facebook marketing</tspan></text>
<rect x="127.4" y="201.43" class="st3" width="269.26" height="100"/>
<text transform="matrix(1 0 0 1 127.4004 219.0251)"><tspan x="0" y="0" class="st4 st5 st6">2011</tspan><tspan x="0" y="18" class="st7 st8">Helped the Washington Redskins </tspan><tspan x="0" y="36" class="st7 st8">become the fastest growing NFL </tspan><tspan x="0" y="54" class="st7 st8">team on Facebook</tspan></text>
<rect x="132" y="336.05" class="st3" width="228" height="100"/>
<text transform="matrix(1 0 0 1 132 353.6508)"><tspan x="0" y="0" class="st4 st5 st6">2012</tspan><tspan x="0" y="18" class="st7 st8">Helped YouTube become  </tspan><tspan x="0" y="36" class="st7 st8">the fastest growing fan page </tspan><tspan x="0" y="54" class="st7 st8">on all of Facebook</tspan></text>
<rect x="132" y="470.68" class="st3" width="228" height="100"/>
<text transform="matrix(1 0 0 1 131.9997 488.276)"><tspan x="0" y="0" class="st4 st5 st6">2013</tspan><tspan x="0" y="18" class="st7 st8">Team grows to 6 people,  </tspan><tspan x="0" y="36" class="st7 st8">4 cats, 1 dog, 1 horse, </tspan><tspan x="0" y="54" class="st7 st8">expands to Instagram </tspan><tspan x="0" y="72" class="st7 st8">marketing</tspan></text>
<rect x="132" y="605.3" class="st3" width="165.09" height="100"/>
<text transform="matrix(1 0 0 1 131.9999 622.9016)"><tspan x="0" y="0" class="st4 st5 st6">2015</tspan><tspan x="0" y="18" class="st7 st8">Helped grow </tspan><tspan x="0" y="36" class="st7 st8">Eloqua&apos;s Facebook </tspan><tspan x="0" y="54" class="st7 st8">community by </tspan><tspan x="0" y="72" class="st7 st8">2,500%</tspan></text>
<rect x="132" y="754.38" class="st3" width="189.07" height="100"/>
<text transform="matrix(1 0 0 1 132 771.9788)"><tspan x="0" y="0" class="st4 st5 st6">2018</tspan><tspan x="0" y="18" class="st7 st8">Team grows to 10 </tspan><tspan x="0" y="36" class="st7 st8">people, 4 cats, 3 dog,  </tspan><tspan x="0" y="54" class="st7 st8">1 horse, 2 babies</tspan></text>
<rect x="132" y="874.55" class="st3" width="279.56" height="100"/>
<text transform="matrix(1 0 0 1 131.9999 892.1526)"><tspan x="0" y="0" class="st4 st5 st6">TODAY</tspan><tspan x="0" y="18" class="st7 st8">Large team managing over 79 </tspan><tspan x="0" y="36" class="st7 st8">social profiles, 14 Hootsuite </tspan><tspan x="0" y="54" class="st7 st8">accounts, 15 animals, and 3 babies</tspan></text>
<g>
	<rect x="418.24" y="371.79" class="st11" width="6" height="23.5"/>
	<polygon class="st12" points="409.38,360.31 421.36,328.31 433.34,360.31 	"/>
	<polygon class="st12" points="403.96,383.54 421.36,337.07 438.76,383.54 	"/>
</g>
<g>
	<rect x="473.94" y="69.79" class="st11" width="6" height="23.5"/>
	<polygon class="st12" points="465.09,58.3 477.07,26.31 489.05,58.3 	"/>
	<polygon class="st12" points="459.67,81.54 477.07,35.07 494.47,81.54 	"/>
</g>
<g>
	<rect x="491.34" y="69.79" class="st11" width="6" height="23.5"/>
	<polygon class="st12" points="482.49,85.79 494.47,53.79 506.45,85.79 	"/>
</g>
<g>
	<rect x="479.63" y="821.2" class="st11" width="9.06" height="35.47"/>
	<polygon class="st12" points="466.26,803.86 484.34,755.57 502.43,803.86 	"/>
	<polygon class="st12" points="458.08,838.93 484.34,768.79 510.61,838.93 	"/>
</g>
<path class="st13" d="M463.02,395.29c0.53-0.9,0.84-1.92,0.84-3c0-2.65-1.81-4.94-4.45-6.04c-1.14-2.88-4.37-4.96-8.18-4.96
	c-4.76,0-8.62,3.25-8.62,7.25c0,0.73,0.13,1.44,0.37,2.11c-2.42,0.43-4.22,2.12-4.22,4.15c0,0.17,0.02,0.33,0.04,0.5H463.02z"/>
<path class="st13" d="M553.11,983.08c0.53-0.9,0.84-1.92,0.84-3c0-2.65-1.81-4.94-4.45-6.04c-1.14-2.88-4.37-4.96-8.18-4.96
	c-4.76,0-8.62,3.25-8.62,7.25c0,0.73,0.13,1.44,0.37,2.11c-2.42,0.43-4.22,2.12-4.22,4.15c0,0.17,0.02,0.33,0.04,0.5H553.11z"/>
<path class="st13" d="M511.62,962.04c1.09-1.85,1.72-3.94,1.72-6.15c0-5.44-3.72-10.13-9.12-12.4c-2.34-5.91-8.96-10.18-16.78-10.18
	c-9.77,0-17.7,6.66-17.7,14.88c0,1.51,0.27,2.96,0.77,4.33c-4.96,0.88-8.66,4.35-8.66,8.51c0,0.34,0.03,0.68,0.08,1.02H511.62z"/>
<path class="st13" d="M548.99,135.8c-0.53-0.9-0.84-1.92-0.84-3c0-2.65,1.81-4.94,4.45-6.04c1.14-2.88,4.37-4.96,8.18-4.96
	c4.76,0,8.62,3.25,8.62,7.25c0,0.73-0.13,1.44-0.37,2.11c2.42,0.43,4.22,2.12,4.22,4.15c0,0.17-0.02,0.33-0.04,0.5H548.99z"/>
<g>
	<path class="st14" d="M529.49,250.25c0.56-1.51,1.54-2.9,2.87-3.95c1.32-1.04,3.06-1.73,4.82-1.62c1.77,0.15,3.28,1.06,4.57,1.99
		c1.3,0.95,2.44,2.09,3.51,3.32h-0.93c0.73-1.42,1.73-2.8,3.11-3.8c1.34-1.03,3.06-1.73,4.85-1.73c1.79,0,3.5,0.69,4.81,1.75
		c0.66,0.52,1.23,1.13,1.71,1.78c0.23,0.34,0.47,0.66,0.65,1.02l0.27,0.54l0.13,0.27l0.06,0.14l0.03,0.07l0.02,0.03l0.01,0.02
		l0,0.01l0,0c-0.04,0.03,0.08-0.05-0.08,0.06c-0.17,0.11-0.05,0.03-0.09,0.05l0,0l-0.01-0.01l-0.01-0.01l-0.03-0.02l-0.06-0.05
		l-0.11-0.1l-0.22-0.2l-0.42-0.39c-0.28-0.26-0.6-0.47-0.88-0.71c-0.6-0.45-1.2-0.86-1.84-1.18c-1.27-0.64-2.6-1.01-3.92-0.93
		c-1.31,0.05-2.62,0.45-3.81,1.17c-1.18,0.74-2.24,1.73-3.25,2.86l-0.59,0.66l-0.34-0.66c-0.69-1.36-1.64-2.61-2.94-3.41
		c-1.29-0.82-2.85-1-4.21-0.87c-1.38,0.14-2.7,0.53-3.95,1.25c-1.26,0.7-2.38,1.7-3.57,2.77L529.49,250.25z"/>
</g>
<g>
	<path class="st14" d="M553.34,264.74c0.21-1.09,0.76-2.12,1.6-2.95c0.84-0.81,2.07-1.44,3.36-1.31c1.3,0.16,2.27,0.96,3.07,1.67
		c0.82,0.72,1.55,1.52,2.28,2.36h-0.96c0.38-1.01,0.96-2.04,1.86-2.83c0.87-0.8,2.08-1.44,3.41-1.43c1.32,0,2.54,0.64,3.36,1.46
		c0.21,0.2,0.41,0.42,0.57,0.66c0.17,0.23,0.34,0.46,0.46,0.71c0.13,0.25,0.26,0.49,0.35,0.75l0.13,0.39l0.06,0.2l0.03,0.1
		l0.01,0.05l0.01,0.02l0,0.01l0,0.01l0,0c-0.04,0.02,0.09-0.05-0.09,0.05c-0.17,0.1-0.05,0.03-0.09,0.05l0,0l0,0l-0.01-0.01
		l-0.02-0.02l-0.04-0.03l-0.08-0.06l-0.15-0.13l-0.29-0.26c-0.18-0.18-0.41-0.31-0.59-0.47c-0.4-0.3-0.79-0.57-1.2-0.78
		c-0.81-0.42-1.61-0.64-2.37-0.58c-0.75,0.06-1.52,0.29-2.26,0.78c-0.72,0.5-1.4,1.16-2.08,1.91l-0.69,0.76l-0.28-0.76
		c-0.35-0.95-0.89-1.85-1.71-2.43c-0.82-0.59-1.87-0.65-2.68-0.51c-0.82,0.15-1.6,0.38-2.39,0.87c-0.8,0.47-1.53,1.14-2.39,1.83
		L553.34,264.74z"/>
</g>
<g>
	<path class="st14" d="M565.46,241.75c0.4-1.41,1.17-2.74,2.31-3.8c1.12-1.04,2.72-1.82,4.37-1.7c1.67,0.16,3,1.12,4.09,2.06
		c1.11,0.95,2.07,2.05,2.99,3.2h-0.96c0.57-1.33,1.37-2.65,2.56-3.66c1.15-1.03,2.71-1.82,4.41-1.82c1.69-0.01,3.26,0.78,4.37,1.82
		c0.29,0.26,0.55,0.53,0.78,0.84c0.23,0.3,0.47,0.58,0.64,0.91c0.18,0.32,0.38,0.63,0.52,0.97l0.2,0.51l0.1,0.25l0.05,0.13
		l0.02,0.06l0.01,0.03l0.01,0.02l0,0.01l0,0c-0.04,0.02,0.09-0.05-0.08,0.05c-0.17,0.1-0.05,0.03-0.09,0.05l0,0l-0.01-0.01
		l-0.01-0.01l-0.02-0.02l-0.05-0.05l-0.1-0.09l-0.19-0.18l-0.37-0.37c-0.23-0.26-0.52-0.46-0.76-0.69
		c-0.51-0.44-1.04-0.84-1.59-1.16c-1.1-0.64-2.25-1.01-3.38-0.94c-1.12,0.07-2.24,0.45-3.26,1.17c-1.01,0.73-1.9,1.69-2.78,2.75
		l-0.64,0.78l-0.33-0.78c-0.54-1.27-1.31-2.47-2.42-3.27c-1.11-0.82-2.51-1.03-3.69-0.9c-1.19,0.15-2.33,0.54-3.41,1.26
		c-1.09,0.7-2.04,1.67-3.1,2.68L565.46,241.75z"/>
</g>
<g>
	<path class="st14" d="M511.15,736.77c0.56-1.51,1.54-2.9,2.87-3.95c1.32-1.04,3.06-1.73,4.82-1.62c1.77,0.15,3.28,1.06,4.57,1.99
		c1.3,0.95,2.44,2.09,3.51,3.32h-0.93c0.73-1.42,1.73-2.8,3.11-3.8c1.34-1.03,3.06-1.73,4.85-1.73c1.79,0,3.5,0.69,4.81,1.75
		c0.66,0.52,1.23,1.13,1.71,1.78c0.23,0.34,0.47,0.66,0.65,1.02l0.27,0.54l0.13,0.27l0.06,0.14l0.03,0.07l0.02,0.03l0.01,0.02
		l0,0.01l0,0c-0.04,0.03,0.08-0.05-0.08,0.06c-0.17,0.11-0.05,0.03-0.09,0.05l0,0l-0.01-0.01l-0.01-0.01l-0.03-0.02l-0.06-0.05
		l-0.11-0.1l-0.22-0.2l-0.42-0.39c-0.28-0.26-0.6-0.47-0.88-0.71c-0.6-0.45-1.2-0.86-1.84-1.18c-1.27-0.64-2.6-1.01-3.92-0.93
		c-1.31,0.05-2.62,0.45-3.81,1.17c-1.18,0.74-2.24,1.73-3.25,2.86l-0.59,0.66l-0.34-0.66c-0.69-1.36-1.64-2.61-2.94-3.41
		c-1.29-0.82-2.85-1-4.21-0.87c-1.38,0.14-2.7,0.53-3.95,1.25c-1.26,0.7-2.38,1.7-3.57,2.77L511.15,736.77z"/>
</g>
<g>
	<path class="st14" d="M534.99,751.27c0.21-1.09,0.76-2.12,1.6-2.95c0.84-0.81,2.07-1.44,3.36-1.31c1.3,0.16,2.27,0.96,3.07,1.67
		c0.82,0.72,1.55,1.52,2.28,2.36h-0.96c0.38-1.01,0.96-2.04,1.86-2.83c0.87-0.8,2.08-1.44,3.41-1.43c1.32,0,2.54,0.64,3.36,1.46
		c0.21,0.2,0.41,0.42,0.57,0.66c0.17,0.23,0.34,0.46,0.46,0.71c0.13,0.25,0.26,0.49,0.35,0.75l0.13,0.39l0.06,0.2l0.03,0.1
		l0.01,0.05l0.01,0.02l0,0.01l0,0.01l0,0c-0.04,0.02,0.09-0.05-0.09,0.05c-0.17,0.1-0.05,0.03-0.09,0.05l0,0l0,0l-0.01-0.01
		l-0.02-0.02l-0.04-0.03l-0.08-0.06L554.1,751l-0.29-0.26c-0.18-0.18-0.41-0.31-0.59-0.47c-0.4-0.3-0.79-0.57-1.2-0.78
		c-0.81-0.42-1.61-0.64-2.37-0.58c-0.75,0.06-1.52,0.29-2.26,0.78c-0.72,0.5-1.4,1.16-2.08,1.91l-0.69,0.76l-0.28-0.76
		c-0.35-0.95-0.89-1.85-1.71-2.43c-0.82-0.59-1.87-0.65-2.68-0.51c-0.82,0.15-1.6,0.38-2.39,0.87c-0.8,0.47-1.53,1.14-2.39,1.83
		L534.99,751.27z"/>
</g>
<g>
	<path class="st14" d="M579.45,785.09c0.21-1.09,0.76-2.12,1.6-2.95c0.84-0.81,2.07-1.44,3.36-1.31c1.3,0.16,2.27,0.96,3.07,1.67
		c0.82,0.72,1.55,1.52,2.28,2.36h-0.96c0.38-1.01,0.96-2.04,1.86-2.83c0.87-0.8,2.08-1.44,3.41-1.43c1.32,0,2.54,0.64,3.36,1.46
		c0.21,0.2,0.41,0.42,0.57,0.66c0.17,0.23,0.34,0.46,0.46,0.71c0.13,0.25,0.26,0.49,0.35,0.75l0.13,0.39l0.06,0.2l0.03,0.1
		l0.01,0.05l0.01,0.02l0,0.01l0,0.01l0,0c-0.04,0.02,0.09-0.05-0.09,0.05c-0.17,0.1-0.05,0.03-0.09,0.05l0,0l0,0l-0.01-0.01
		l-0.02-0.02l-0.04-0.03l-0.08-0.06l-0.15-0.13l-0.29-0.26c-0.18-0.18-0.41-0.31-0.59-0.47c-0.4-0.3-0.79-0.57-1.2-0.78
		c-0.81-0.42-1.61-0.64-2.37-0.58c-0.75,0.06-1.52,0.29-2.26,0.78c-0.72,0.5-1.4,1.16-2.08,1.91l-0.69,0.76l-0.28-0.76
		c-0.35-0.95-0.89-1.85-1.71-2.43c-0.82-0.59-1.87-0.65-2.68-0.51c-0.82,0.15-1.6,0.38-2.39,0.87c-0.8,0.47-1.53,1.14-2.39,1.83
		L579.45,785.09z"/>
</g>
<g>
	<path class="st14" d="M547.11,728.28c0.4-1.41,1.17-2.74,2.31-3.8c1.12-1.04,2.72-1.82,4.37-1.7c1.67,0.16,3,1.12,4.09,2.06
		c1.11,0.95,2.07,2.05,2.99,3.2h-0.96c0.57-1.33,1.37-2.65,2.56-3.66c1.15-1.03,2.71-1.82,4.41-1.82c1.69-0.01,3.26,0.78,4.37,1.82
		c0.29,0.26,0.55,0.53,0.78,0.84c0.23,0.3,0.47,0.58,0.64,0.91c0.18,0.32,0.38,0.63,0.52,0.97l0.2,0.51l0.1,0.25l0.05,0.13
		l0.02,0.06l0.01,0.03l0.01,0.02l0,0.01l0,0c-0.04,0.02,0.09-0.05-0.08,0.05c-0.17,0.1-0.05,0.03-0.09,0.05l0,0l-0.01-0.01
		l-0.01-0.01l-0.02-0.02l-0.05-0.05l-0.1-0.09l-0.19-0.18l-0.37-0.37c-0.23-0.26-0.52-0.46-0.76-0.69
		c-0.51-0.44-1.04-0.84-1.59-1.16c-1.1-0.64-2.25-1.01-3.38-0.94c-1.12,0.07-2.24,0.45-3.26,1.17c-1.01,0.73-1.9,1.69-2.78,2.75
		l-0.64,0.78l-0.33-0.78c-0.54-1.27-1.31-2.47-2.42-3.27c-1.11-0.82-2.51-1.03-3.69-0.9c-1.19,0.15-2.33,0.54-3.41,1.26
		c-1.09,0.7-2.04,1.67-3.1,2.68L547.11,728.28z"/>
</g>
<g>
	<path class="st15" d="M529.34,596.35c-1.16-1.7-0.64-3.98,1.04-5.17c6.72-4.75,10.89-13.81,10.89-19.37
		c0-14.67-20.12-25.58-38.75-18.33c-18,7-0.67,20.33-33.67,20.08c-35.75-0.27-64.5,15.63-64.5,34.92s28.88,34.92,64.5,34.92
		s64.5-15.63,64.5-34.92C533.35,604.22,531.93,600.13,529.34,596.35z"/>
	<ellipse class="st15" cx="553.25" cy="643.48" rx="24.35" ry="14"/>
</g>
<g>
	<path class="st16" d="M487.85,551.18c-1.2,1.54-2.17,3.23-3.02,4.98c-0.84,1.75-1.55,3.56-2.08,5.42
		c-0.53,1.86-0.95,3.75-1.16,5.67c-0.26,1.91-0.28,3.84-0.25,5.76l-1,0.02c0.05-1.97,0.16-3.95,0.51-5.89
		c0.29-1.95,0.81-3.85,1.42-5.71c0.61-1.86,1.42-3.66,2.33-5.38C485.53,554.33,486.59,552.67,487.85,551.18z"/>
</g>
<g>
	<path class="st16" d="M482.01,547.14c-1.33,4.81-2.35,9.71-3.11,14.63c-0.75,4.92-1.2,9.9-1.06,14.85l-1,0.02
		c0.02-5.04,0.65-10.03,1.56-14.95C479.34,556.77,480.53,551.91,482.01,547.14z"/>
</g>
<g>
	<path class="st16" d="M471.24,555.75c1.31,1.15,2.29,2.65,3.07,4.22c0.77,1.58,1.29,3.27,1.64,5c0.36,1.73,0.45,3.5,0.46,5.26
		c0,0.88-0.08,1.76-0.12,2.64l-0.33,2.63l-0.98-0.18l0.44-2.54c0.08-0.86,0.2-1.71,0.24-2.57c0.07-1.72,0.06-3.45-0.21-5.16
		c-0.26-1.7-0.68-3.39-1.37-4.98C473.39,558.49,472.5,556.96,471.24,555.75z"/>
</g>
<g>
	<path class="st16" d="M474.58,552.4c1.29,1.43,2.2,3.16,2.96,4.93c0.75,1.78,1.28,3.65,1.67,5.54c0.4,1.9,0.57,3.83,0.68,5.76
		c0.05,0.97,0.02,1.94,0.04,2.91l-0.14,2.91l-1-0.1l0.26-2.84c0.03-0.95,0.09-1.9,0.09-2.85c-0.02-1.9-0.11-3.81-0.43-5.69
		c-0.3-1.88-0.74-3.75-1.41-5.54C476.64,555.64,475.8,553.89,474.58,552.4z"/>
</g>
<g>
	<path class="st16" d="M454.54,622.12c-1.2,1.54-2.17,3.23-3.02,4.98c-0.84,1.75-1.55,3.56-2.08,5.42
		c-0.53,1.86-0.95,3.75-1.16,5.67c-0.26,1.91-0.28,3.84-0.25,5.76l-1,0.02c0.05-1.97,0.16-3.95,0.51-5.89
		c0.29-1.95,0.81-3.85,1.42-5.71c0.61-1.86,1.42-3.66,2.33-5.38C452.22,625.26,453.28,623.61,454.54,622.12z"/>
</g>
<g>
	<path class="st16" d="M446.67,616.62c-1.33,4.81-2.35,9.71-3.11,14.63c-0.75,4.92-1.2,9.9-1.06,14.85l-1,0.02
		c0.02-5.04,0.65-10.03,1.56-14.95C443.99,626.25,445.18,621.39,446.67,616.62z"/>
</g>
<g>
	<path class="st16" d="M440.58,626.26c1.31,1.15,2.29,2.65,3.07,4.22c0.77,1.58,1.29,3.27,1.64,5c0.36,1.73,0.45,3.5,0.46,5.26
		c0,0.88-0.08,1.76-0.12,2.64l-0.33,2.63l-0.98-0.18l0.44-2.54c0.08-0.86,0.2-1.71,0.24-2.57c0.07-1.72,0.06-3.45-0.21-5.16
		c-0.26-1.7-0.68-3.39-1.37-4.98C442.73,629,441.83,627.47,440.58,626.26z"/>
</g>
<g>
	<path class="st16" d="M443.92,622.91c1.29,1.43,2.2,3.16,2.96,4.93c0.75,1.78,1.28,3.65,1.67,5.54c0.4,1.9,0.57,3.83,0.68,5.76
		c0.05,0.97,0.02,1.94,0.04,2.91l-0.14,2.91l-1-0.1l0.26-2.84c0.03-0.95,0.09-1.9,0.09-2.85c-0.02-1.9-0.11-3.81-0.43-5.69
		c-0.3-1.88-0.74-3.75-1.41-5.54C445.97,626.15,445.14,624.39,443.92,622.91z"/>
</g>
<g>
	<path class="st16" d="M465.48,621.69c-1.2,1.54-2.17,3.23-3.02,4.98c-0.84,1.75-1.55,3.56-2.08,5.42
		c-0.53,1.86-0.95,3.75-1.16,5.67c-0.26,1.91-0.28,3.84-0.25,5.76l-1,0.02c0.05-1.97,0.16-3.95,0.51-5.89
		c0.29-1.95,0.81-3.85,1.42-5.71c0.61-1.86,1.42-3.66,2.33-5.38C463.17,624.83,464.22,623.17,465.48,621.69z"/>
</g>
<g>
	<path class="st16" d="M459.22,616.62c-1.33,4.81-2.35,9.71-3.11,14.63c-0.75,4.92-1.2,9.9-1.06,14.85l-1,0.02
		c0.02-5.04,0.65-10.03,1.56-14.95C456.54,626.25,457.73,621.39,459.22,616.62z"/>
</g>
<g>
	<path class="st16" d="M448.06,627.82c1.31,1.15,2.29,2.65,3.07,4.22c0.77,1.58,1.29,3.27,1.64,5c0.36,1.73,0.45,3.5,0.46,5.26
		c0,0.88-0.08,1.76-0.12,2.64l-0.33,2.63l-0.98-0.18l0.44-2.54c0.08-0.86,0.2-1.71,0.24-2.57c0.07-1.72,0.06-3.45-0.21-5.16
		c-0.26-1.7-0.68-3.39-1.37-4.98C450.21,630.56,449.32,629.03,448.06,627.82z"/>
</g>
<g>
	<path class="st16" d="M457.02,625.86c1.29,1.43,2.2,3.16,2.96,4.93c0.75,1.78,1.28,3.65,1.67,5.54c0.4,1.9,0.57,3.83,0.68,5.76
		c0.05,0.97,0.02,1.94,0.04,2.91l-0.14,2.91l-1-0.1l0.26-2.84c0.03-0.95,0.09-1.9,0.09-2.85c-0.02-1.9-0.11-3.81-0.43-5.69
		c-0.3-1.88-0.74-3.75-1.41-5.54C459.07,629.11,458.24,627.35,457.02,625.86z"/>
</g>
<g>
	<path class="st16" d="M466.5,629.33c-1.2,1.54-2.17,3.23-3.02,4.98c-0.84,1.75-1.55,3.56-2.08,5.42c-0.53,1.86-0.95,3.75-1.16,5.67
		c-0.26,1.91-0.28,3.84-0.25,5.76l-1,0.02c0.05-1.97,0.16-3.95,0.51-5.89c0.29-1.95,0.81-3.85,1.42-5.71
		c0.61-1.86,1.42-3.66,2.33-5.38C464.19,632.47,465.24,630.82,466.5,629.33z"/>
</g>
<g>
	<path class="st16" d="M454.56,622.12c-1.33,4.81-2.35,9.71-3.11,14.63c-0.75,4.92-1.2,9.9-1.06,14.85l-1,0.02
		c0.02-5.04,0.65-10.03,1.56-14.95C451.88,631.75,453.07,626.89,454.56,622.12z"/>
</g>
<g>
	<path class="st16" d="M441.51,629.33c1.31,1.15,2.29,2.65,3.07,4.22c0.77,1.58,1.29,3.27,1.64,5c0.36,1.73,0.45,3.5,0.46,5.26
		c0,0.88-0.08,1.76-0.12,2.64l-0.33,2.63l-0.98-0.18l0.44-2.54c0.08-0.86,0.2-1.71,0.24-2.57c0.07-1.72,0.06-3.45-0.21-5.16
		c-0.26-1.7-0.68-3.39-1.37-4.98C443.66,632.07,442.76,630.54,441.51,629.33z"/>
</g>
<g>
	<path class="st16" d="M451.92,628.16c1.29,1.43,2.2,3.16,2.96,4.93c0.75,1.78,1.28,3.65,1.67,5.54c0.4,1.9,0.57,3.83,0.68,5.76
		c0.05,0.97,0.02,1.94,0.04,2.91l-0.14,2.91l-1-0.1l0.26-2.84c0.03-0.95,0.09-1.9,0.09-2.85c-0.02-1.9-0.11-3.81-0.43-5.69
		c-0.3-1.88-0.74-3.75-1.41-5.54C453.97,631.4,453.14,629.65,451.92,628.16z"/>
</g>
<path class="st17" d="M512.08,611.23c0.01-0.1,0.02-0.2,0.02-0.31c0-3.14-3.53-5.69-7.87-5.69s-7.88,2.55-7.88,5.69
	c0,0.1,0.01,0.2,0.02,0.31H512.08z"/>
<path class="st17" d="M500.07,599.26c0,0-1.19-0.81-2.38-0.35c-1.1,0.42-1.78,1.34-1.51,2.05c0.27,0.72,1.38,0.96,2.49,0.54
	c0.48-0.18,0.87-0.46,1.15-0.78c0.49,0.7,0.71,1.73-0.23,3.14c-2,3-3.46,4.62-3.23,7.38h1.19c-0.23-2.75,1.64-4.14,3.23-7.38
	C502.29,600.79,500.07,599.26,500.07,599.26z"/>
<path class="st18" d="M496.17,601.5c0,0-0.04,1.3-0.54,2.07c1.06-0.28,1.94-1.84,1.94-1.84l-1.19-0.62
	C496.39,601.11,495.89,600.98,496.17,601.5z"/>
<linearGradient id="SVGID_2_" gradientUnits="userSpaceOnUse" x1="40" y1="990.553" x2="40" y2="102.8001">
	<stop  offset="0" style="stop-color:#2A7DE1"/>
	<stop  offset="0.45" style="stop-color:#5981B1"/>
	<stop  offset="0.8024" style="stop-color:#778392"/>
	<stop  offset="1" style="stop-color:#828487"/>
</linearGradient>
<line style="fill:none;stroke:url(#SVGID_2_);stroke-width:9;stroke-miterlimit:10;" x1="40" y1="102.8" x2="40" y2="990.55"/>
<circle class="st1" cx="40" cy="102.8" r="66"/>
<circle class="st0" cx="40" cy="237.09" r="26"/>
<circle class="st1" cx="40" cy="924.55" r="66"/>
<circle class="st1" cx="40" cy="651.37" r="66"/>
<circle class="st0" cx="40" cy="508.8" r="26"/>
<circle class="st0" cx="40" cy="787.13" r="26"/>
<circle class="st1" cx="40" cy="371.79" r="66"/>
</svg>
