<?xml version="1.0" encoding="utf-8"?>
<!-- Generator: Adobe Illustrator 23.0.3, SVG Export Plug-In . SVG Version: 6.00 Build 0)  -->
<svg version="1.1" id="Layer_1" xmlns="http://www.w3.org/2000/svg" xmlns:xlink="http://www.w3.org/1999/xlink" x="0px" y="0px"
	 viewBox="0 0 40.06 40.06" style="enable-background:new 0 0 40.06 40.06;" xml:space="preserve">
<style type="text/css">
	.st0{fill:#FFA700;}
</style>
<path class="st0" d="M34.19,5.87C30.57,2.24,25.57,0,20.03,0C14.5,0,9.49,2.24,5.87,5.87C2.24,9.49,0,14.5,0,20.03
	s2.24,10.54,5.87,14.16c3.63,3.63,8.63,5.87,14.16,5.87s10.54-2.24,14.16-5.87c3.63-3.63,5.87-8.63,5.87-14.16
	S37.82,9.49,34.19,5.87z M24.57,18.42l-0.13,1.61h-3.03c0,4.57,0,10.23,0,10.23h-4.09c0,0,0-5.58,0-10.23h-2.06v-1.62v-2.47h2.04
	V14.1c0-1.69,0.79-4.28,4.3-4.28h3.16v3.5c0,0-1.93,0-2.3,0c-0.38,0-0.9,0.19-0.9,0.98v1.64h3.25L24.57,18.42z"/>
</svg>
