<?xml version="1.0" encoding="utf-8"?>
<!-- Generator: Adobe Illustrator 23.0.3, SVG Export Plug-In . SVG Version: 6.00 Build 0)  -->
<svg version="1.1" id="Layer_1" xmlns="http://www.w3.org/2000/svg" xmlns:xlink="http://www.w3.org/1999/xlink" x="0px" y="0px"
	 viewBox="0 0 152 152" style="enable-background:new 0 0 152 152;" xml:space="preserve">
<style type="text/css">
	.st0{fill:#2A7DE1;}
	.st1{fill:#FFFFFF;}
	.st2{fill:url(#SVGID_1_);}
	.st3{fill:url(#SVGID_2_);}
	.st4{fill:#BD4700;}
	.st5{fill:#FFA700;}
	.st6{fill:#005AD4;}
	.st7{opacity:0.5;fill:url(#SVGID_5_);}
	.st8{fill:#003575;}
	.st9{clip-path:url(#SVGID_7_);}
	.st10{opacity:0.5;fill:url(#SVGID_28_);}
	.st11{fill:#444444;}
	.st12{fill:#C3C3C3;}
	.st13{fill:none;stroke:#FFFFFF;stroke-width:2.3155;stroke-miterlimit:10;}
	.st14{fill:#828487;}
	.st15{clip-path:url(#SVGID_30_);}
	.st16{fill:#DDE0E5;}
	.st17{fill:#2B3B4E;}
	.st18{fill:#FFD186;}
	.st19{fill:#FFC75B;}
	.st20{fill:#324A5E;}
	.st21{fill:#FF7058;}
	.st22{fill:#F3CF89;}
	.st23{fill:#2F7CC0;}
	.st24{fill:none;stroke:#FFA700;stroke-miterlimit:10;}
	.st25{fill:none;stroke:#003575;stroke-miterlimit:10;}
	.st26{fill:#00A6A4;}
	.st27{fill:none;stroke:#FFFFFF;stroke-width:1.0893;}
	.st28{fill:#051922;}
	.st29{fill:#63717A;}
	.st30{clip-path:url(#SVGID_50_);fill:#63717A;}
	.st31{clip-path:url(#SVGID_52_);fill:none;stroke:#63717A;stroke-width:0.2712;}
	.st32{fill:none;stroke:#63717A;stroke-width:0.2712;}
	.st33{fill:#3E2680;}
	.st34{clip-path:url(#SVGID_54_);fill:#051922;}
	.st35{clip-path:url(#SVGID_56_);fill:none;stroke:#3E2680;stroke-width:0.2712;}
	.st36{clip-path:url(#SVGID_58_);fill:#F9A01B;}
	.st37{clip-path:url(#SVGID_60_);fill:none;stroke:#F9A01B;stroke-width:0.2712;}
	.st38{clip-path:url(#SVGID_62_);fill:#BF2F38;}
	.st39{clip-path:url(#SVGID_64_);fill:#E56020;}
	.st40{clip-path:url(#SVGID_66_);fill:none;stroke:#E56020;stroke-width:0.1944;}
	.st41{clip-path:url(#SVGID_68_);fill:#F9A01B;}
	.st42{clip-path:url(#SVGID_70_);fill:none;stroke:#F9A01B;stroke-width:0.2712;stroke-linejoin:round;}
	.st43{clip-path:url(#SVGID_72_);fill:#F9A01B;}
	.st44{clip-path:url(#SVGID_74_);fill:none;stroke:#F9A01B;stroke-width:0.2712;}
	.st45{clip-path:url(#SVGID_76_);fill:#FFFFFF;}
	.st46{clip-path:url(#SVGID_78_);fill:#051922;}
	.st47{clip-path:url(#SVGID_80_);fill:none;stroke:#E56020;stroke-width:0.2712;}
	.st48{clip-path:url(#SVGID_82_);fill:none;stroke:#BF2F38;stroke-width:0.2712;}
	.st49{clip-path:url(#SVGID_84_);fill:none;stroke:#F9A01B;stroke-width:0.2712;}
	.st50{clip-path:url(#SVGID_86_);fill:url(#SVGID_87_);}
	.st51{clip-path:url(#SVGID_89_);fill:url(#SVGID_90_);}
	.st52{fill:#80AF97;}
	.st53{fill:#231F20;}
	.st54{fill:none;stroke:#157C6C;stroke-width:0.7953;}
	.st55{fill:none;stroke:#FFFFFF;stroke-width:0.7953;}
	.st56{clip-path:url(#SVGID_92_);}
	.st57{clip-path:url(#SVGID_94_);}
	.st58{fill:none;stroke:#000000;stroke-width:0.1714;}
	.st59{fill:none;stroke:#231F20;stroke-width:0.3197;}
	.st60{clip-path:url(#SVGID_98_);fill:#BCBCBE;}
	.st61{clip-path:url(#SVGID_98_);fill:#BCBEC0;}
	.st62{clip-path:url(#SVGID_98_);fill:#BEC0C2;}
	.st63{clip-path:url(#SVGID_98_);fill:#BFC0C2;}
	.st64{clip-path:url(#SVGID_98_);fill:#BFC1C3;}
	.st65{clip-path:url(#SVGID_98_);fill:#C2C4C5;}
	.st66{clip-path:url(#SVGID_98_);fill:#C3C4C7;}
	.st67{clip-path:url(#SVGID_98_);fill:#C5C5C7;}
	.st68{clip-path:url(#SVGID_98_);fill:#C5C6C9;}
	.st69{clip-path:url(#SVGID_98_);fill:#C6C8CA;}
	.st70{clip-path:url(#SVGID_98_);fill:#C7C8CA;}
	.st71{clip-path:url(#SVGID_98_);fill:#C9CACB;}
	.st72{clip-path:url(#SVGID_98_);fill:#CACCCE;}
	.st73{clip-path:url(#SVGID_98_);fill:#CCCECE;}
	.st74{clip-path:url(#SVGID_98_);fill:#CECFD1;}
	.st75{clip-path:url(#SVGID_98_);fill:#D0D0D1;}
	.st76{clip-path:url(#SVGID_98_);fill:#D0D1D2;}
	.st77{clip-path:url(#SVGID_98_);fill:#D1D2D3;}
	.st78{clip-path:url(#SVGID_98_);fill:#D3D3D5;}
	.st79{clip-path:url(#SVGID_98_);fill:#D4D5D5;}
	.st80{clip-path:url(#SVGID_98_);fill:#D4D6D7;}
	.st81{clip-path:url(#SVGID_98_);fill:#D5D6D7;}
	.st82{clip-path:url(#SVGID_98_);fill:#D7D8D9;}
	.st83{clip-path:url(#SVGID_98_);fill:#D8DADA;}
	.st84{clip-path:url(#SVGID_98_);fill:#DBDBDC;}
	.st85{clip-path:url(#SVGID_98_);fill:#DBDCDD;}
	.st86{clip-path:url(#SVGID_98_);fill:#DCDFE0;}
	.st87{clip-path:url(#SVGID_98_);fill:#DFE0E0;}
	.st88{clip-path:url(#SVGID_98_);fill:#DFE0E1;}
	.st89{clip-path:url(#SVGID_98_);fill:#E1E2E3;}
	.st90{clip-path:url(#SVGID_98_);fill:#E3E4E5;}
	.st91{clip-path:url(#SVGID_98_);fill:#E4E5E6;}
	.st92{clip-path:url(#SVGID_98_);fill:#E7E6E6;}
	.st93{clip-path:url(#SVGID_98_);fill:#E7E7E7;}
	.st94{clip-path:url(#SVGID_98_);fill:#E8E9EA;}
	.st95{clip-path:url(#SVGID_98_);fill:#E9E9EB;}
	.st96{clip-path:url(#SVGID_98_);fill:#EBEBEA;}
	.st97{clip-path:url(#SVGID_98_);fill:#ECECEE;}
	.st98{clip-path:url(#SVGID_98_);fill:#EFEFEF;}
	.st99{clip-path:url(#SVGID_98_);fill:#F1F1F1;}
	.st100{clip-path:url(#SVGID_98_);fill:#F3F2F3;}
	.st101{clip-path:url(#SVGID_98_);fill:#F3F2F2;}
	.st102{clip-path:url(#SVGID_98_);fill:#F3F4F5;}
	.st103{clip-path:url(#SVGID_98_);fill:#F5F5F6;}
	.st104{clip-path:url(#SVGID_98_);fill:#F7F7F8;}
	.st105{clip-path:url(#SVGID_98_);fill:#F7F9FC;}
	.st106{clip-path:url(#SVGID_98_);fill:#F9F9FC;}
	.st107{clip-path:url(#SVGID_98_);fill:#FFFFFF;}
	.st108{fill:none;stroke:#BCBEC0;stroke-width:0.455;}
	.st109{fill:none;stroke:#929497;stroke-width:0.455;stroke-linecap:round;}
	.st110{fill:none;stroke:#F8A03A;stroke-width:0.455;stroke-linecap:round;}
	.st111{fill:none;stroke:#231F20;stroke-width:0.0864;}
	.st112{clip-path:url(#SVGID_100_);fill:#C3C4C7;}
	.st113{clip-path:url(#SVGID_100_);fill:#C7C8CA;}
	.st114{clip-path:url(#SVGID_100_);fill:#CCCECE;}
	.st115{clip-path:url(#SVGID_100_);fill:#CECFD1;}
	.st116{clip-path:url(#SVGID_100_);fill:#D0D0D1;}
	.st117{clip-path:url(#SVGID_100_);fill:#D0D1D2;}
	.st118{clip-path:url(#SVGID_100_);fill:#D1D2D3;}
	.st119{clip-path:url(#SVGID_100_);fill:#D3D3D5;}
	.st120{clip-path:url(#SVGID_100_);fill:#D4D5D5;}
	.st121{clip-path:url(#SVGID_100_);fill:#D4D6D7;}
	.st122{clip-path:url(#SVGID_100_);fill:#D5D6D7;}
	.st123{clip-path:url(#SVGID_100_);fill:#D7D8D9;}
	.st124{clip-path:url(#SVGID_100_);fill:#D8DADA;}
	.st125{clip-path:url(#SVGID_100_);fill:#DBDBDC;}
	.st126{clip-path:url(#SVGID_100_);fill:#DBDCDD;}
	.st127{clip-path:url(#SVGID_100_);fill:#DCDFE0;}
	.st128{clip-path:url(#SVGID_100_);fill:#DFE0E0;}
	.st129{clip-path:url(#SVGID_100_);fill:#DFE0E1;}
	.st130{clip-path:url(#SVGID_100_);fill:#E1E2E3;}
	.st131{clip-path:url(#SVGID_100_);fill:#E3E4E5;}
	.st132{clip-path:url(#SVGID_100_);fill:#E4E5E6;}
	.st133{clip-path:url(#SVGID_100_);fill:#E7E6E6;}
	.st134{clip-path:url(#SVGID_100_);fill:#E7E7E7;}
	.st135{clip-path:url(#SVGID_100_);fill:#E8E9EA;}
	.st136{clip-path:url(#SVGID_100_);fill:#E9E9EB;}
	.st137{clip-path:url(#SVGID_100_);fill:#EBEBEA;}
	.st138{clip-path:url(#SVGID_100_);fill:#ECECEE;}
	.st139{clip-path:url(#SVGID_100_);fill:#EFEFEF;}
	.st140{clip-path:url(#SVGID_100_);fill:#F1F1F1;}
	.st141{clip-path:url(#SVGID_100_);fill:#F3F2F3;}
	.st142{clip-path:url(#SVGID_100_);fill:#F3F2F2;}
	.st143{clip-path:url(#SVGID_100_);fill:#F3F4F5;}
	.st144{clip-path:url(#SVGID_100_);fill:#F5F5F6;}
	.st145{clip-path:url(#SVGID_100_);fill:#F7F7F8;}
	.st146{clip-path:url(#SVGID_100_);fill:#F7F9FC;}
	.st147{clip-path:url(#SVGID_100_);fill:#F9F9FC;}
	.st148{clip-path:url(#SVGID_100_);fill:#FFFFFF;}
	.st149{fill:none;stroke:#231F20;stroke-width:0.8856;}
	.st150{fill:none;stroke:#231F20;stroke-width:0.4164;}
	.st151{clip-path:url(#SVGID_102_);fill:url(#SVGID_103_);}
	.st152{fill:none;stroke:#231F20;stroke-width:0.3107;}
</style>
<circle class="st0" cx="76" cy="76" r="76"/>
<g>
	<g>
		<circle class="st1" cx="75.13" cy="76.11" r="64"/>
	</g>
	<g>
		<g>
			<g>
				<path class="st5" d="M135.06,98.61c-4.36,11.61-11.99,21.61-21.77,28.88c-8.6-0.7-16.34-3.38-22.33-7.38
					c-0.02-0.24-0.02-0.47-0.02-0.7c0-14.89,12.08-26.96,26.97-26.96C124.42,92.45,130.39,94.76,135.06,98.61z"/>
			</g>
			<g>
				<path class="st5" d="M130.45,71.92c0-0.84-0.3-1.6-0.78-2.18c0.03-0.48,0.05-0.97,0.05-1.44c0-8.39-5.3-11.57-11.83-11.57
					c-6.53,0-11.83,3.18-11.83,11.57c0,0.47,0.02,0.95,0.05,1.44c-0.48,0.58-0.78,1.34-0.78,2.18c0,1.29,0.69,2.39,1.67,2.92
					c1.81,6.44,6,12.26,10.88,12.26c4.88,0,9.07-5.82,10.88-12.26C129.77,74.31,130.45,73.21,130.45,71.92z"/>
			</g>
		</g>
		<g>
			<g>
				<path class="st5" d="M59.32,119.41c0,0.23,0,0.47-0.02,0.71c-5.99,3.99-13.73,6.67-22.33,7.37
					c-9.78-7.27-17.41-17.27-21.77-28.87c4.67-3.85,10.65-6.17,17.16-6.17C47.25,92.45,59.32,104.52,59.32,119.41z"/>
			</g>
			<g>
				<path class="st5" d="M44.91,71.92c0-0.84-0.3-1.6-0.78-2.18c0.03-0.48,0.05-0.97,0.05-1.44c0-8.39-5.3-11.57-11.83-11.57
					S20.53,59.91,20.53,68.3c0,0.47,0.02,0.95,0.05,1.44c-0.48,0.58-0.78,1.34-0.78,2.18c0,1.29,0.69,2.39,1.67,2.92
					c1.81,6.44,6,12.26,10.88,12.26s9.07-5.82,10.88-12.26C44.23,74.31,44.91,73.21,44.91,71.92z"/>
			</g>
		</g>
	</g>
	<g>
		<g>
			<path class="st8" d="M115.78,125.54c-0.81,0.67-1.64,1.32-2.49,1.95c-10.65,7.93-23.86,12.62-38.16,12.62
				s-27.51-4.69-38.16-12.62c-0.85-0.63-1.68-1.28-2.49-1.95c2.43-20.3,19.71-36.03,40.66-36.03
				C96.08,89.51,113.36,105.24,115.78,125.54z"/>
		</g>
		<g>
			<path class="st8" d="M94.19,58.33c0-1.28-0.45-2.43-1.18-3.31c0.05-0.74,0.08-1.47,0.08-2.18c0-12.74-8.04-17.56-17.96-17.56
				c-9.92,0-17.96,4.83-17.96,17.56c0,0.72,0.03,1.45,0.08,2.18c-0.72,0.88-1.18,2.03-1.18,3.31c0,1.96,1.04,3.63,2.54,4.44
				c2.74,9.78,9.11,18.62,16.52,18.62c7.42,0,13.78-8.84,16.52-18.62C93.15,61.96,94.19,60.29,94.19,58.33z"/>
		</g>
	</g>
</g>
</svg>
